<mxfile host="app.diagrams.net" modified="2020-11-19T14:21:55.709Z" agent="5.0 (Windows NT 10.0; Win64; x64) AppleWebKit/537.36 (KHTML, like Gecko) Chrome/87.0.4280.66 Safari/537.36" etag="rxdRpQ1WUiqS6vOZYvcv" version="13.9.9" type="github">
  <diagram id="RTxzsfb38XMDdH33E54I" name="Page-1">
    <mxGraphModel dx="2249" dy="800" grid="1" gridSize="10" guides="1" tooltips="1" connect="1" arrows="1" fold="1" page="1" pageScale="1" pageWidth="827" pageHeight="1169" math="0" shadow="0">
      <root>
        <mxCell id="0" />
        <mxCell id="1" parent="0" />
        <mxCell id="4_99zT2MEp11uvjItWfj-1" value="in Maske auftauchen:&lt;br style=&quot;font-size: 19px&quot;&gt;+ Save&lt;br style=&quot;font-size: 19px&quot;&gt;+ Load" style="rounded=1;whiteSpace=wrap;html=1;fontSize=19;" vertex="1" parent="1">
          <mxGeometry x="600" y="360" width="240" height="150" as="geometry" />
        </mxCell>
        <mxCell id="4_99zT2MEp11uvjItWfj-2" value="DS Configuration" style="rounded=1;whiteSpace=wrap;html=1;fontSize=19;" vertex="1" parent="1">
          <mxGeometry x="255" y="240" width="180" height="60" as="geometry" />
        </mxCell>
        <mxCell id="4_99zT2MEp11uvjItWfj-3" value="" style="shape=cross;whiteSpace=wrap;html=1;fontSize=19;size=0;strokeWidth=7;" vertex="1" parent="1">
          <mxGeometry x="310" y="330" width="70" height="60" as="geometry" />
        </mxCell>
        <mxCell id="4_99zT2MEp11uvjItWfj-4" value="Workflow hinzufÃ¼gen" style="rounded=1;whiteSpace=wrap;html=1;fontSize=19;" vertex="1" parent="1">
          <mxGeometry x="290" y="420" width="120" height="60" as="geometry" />
        </mxCell>
        <mxCell id="4_99zT2MEp11uvjItWfj-6" style="edgeStyle=orthogonalEdgeStyle;rounded=0;orthogonalLoop=1;jettySize=auto;html=1;fontSize=19;" edge="1" parent="1" source="4_99zT2MEp11uvjItWfj-5" target="4_99zT2MEp11uvjItWfj-4">
          <mxGeometry relative="1" as="geometry" />
        </mxCell>
        <mxCell id="4_99zT2MEp11uvjItWfj-5" value="EDIB Workflow System&amp;nbsp;&lt;br style=&quot;font-size: 19px;&quot;&gt;Standard" style="rounded=1;whiteSpace=wrap;html=1;fontSize=19;" vertex="1" parent="1">
          <mxGeometry x="-90" y="385" width="260" height="130" as="geometry" />
        </mxCell>
        <mxCell id="4_99zT2MEp11uvjItWfj-9" value="" style="shape=partialRectangle;whiteSpace=wrap;html=1;top=0;bottom=0;fillColor=none;strokeWidth=7;fontSize=19;rotation=90;" vertex="1" parent="1">
          <mxGeometry x="490" y="420" width="40" height="60" as="geometry" />
        </mxCell>
        <mxCell id="4_99zT2MEp11uvjItWfj-10" style="edgeStyle=orthogonalEdgeStyle;rounded=0;orthogonalLoop=1;jettySize=auto;html=1;fontSize=20;" edge="1" parent="1" source="4_99zT2MEp11uvjItWfj-11" target="4_99zT2MEp11uvjItWfj-13">
          <mxGeometry relative="1" as="geometry" />
        </mxCell>
        <mxCell id="4_99zT2MEp11uvjItWfj-11" value="Layout /Design von Kunde" style="rounded=1;whiteSpace=wrap;html=1;fontSize=20;" vertex="1" parent="1">
          <mxGeometry x="-470" y="225" width="270" height="90" as="geometry" />
        </mxCell>
        <mxCell id="4_99zT2MEp11uvjItWfj-12" style="edgeStyle=orthogonalEdgeStyle;rounded=0;orthogonalLoop=1;jettySize=auto;html=1;fontSize=20;entryX=0;entryY=0.5;entryDx=0;entryDy=0;" edge="1" parent="1" source="4_99zT2MEp11uvjItWfj-13" target="4_99zT2MEp11uvjItWfj-2">
          <mxGeometry relative="1" as="geometry">
            <mxPoint x="179" y="267" as="targetPoint" />
          </mxGeometry>
        </mxCell>
        <mxCell id="4_99zT2MEp11uvjItWfj-13" value="Maske&lt;br&gt;(noch kein Save und Load)" style="rounded=1;whiteSpace=wrap;html=1;fontSize=20;" vertex="1" parent="1">
          <mxGeometry x="-120" y="200" width="300" height="140" as="geometry" />
        </mxCell>
      </root>
    </mxGraphModel>
  </diagram>
</mxfile>
